<?xml version="1.0" encoding="UTF-8" standalone="no"?>
<!-- Created with Inkscape (http://www.inkscape.org/) -->

<svg
   xmlns:dc="http://purl.org/dc/elements/1.1/"
   xmlns:cc="http://creativecommons.org/ns#"
   xmlns:rdf="http://www.w3.org/1999/02/22-rdf-syntax-ns#"
   xmlns:svg="http://www.w3.org/2000/svg"
   xmlns="http://www.w3.org/2000/svg"
   xmlns:sodipodi="http://sodipodi.sourceforge.net/DTD/sodipodi-0.dtd"
   xmlns:inkscape="http://www.inkscape.org/namespaces/inkscape"
   width="25"
   height="25"
   viewBox="0 0 6.6145833 6.6145833"
   version="1.1"
   id="svg8"
   inkscape:version="0.92.4 5da689c313, 2019-01-14"
   sodipodi:docname="AM2305_icon.svg">
  <defs
     id="defs2" />
  <sodipodi:namedview
     id="base"
     pagecolor="#ffffff"
     bordercolor="#666666"
     borderopacity="1.0"
     inkscape:pageopacity="0.0"
     inkscape:pageshadow="2"
     inkscape:zoom="11.2"
     inkscape:cx="-8.9661897"
     inkscape:cy="12.963434"
     inkscape:document-units="px"
     inkscape:current-layer="layer1"
     showgrid="false"
     units="px"
     inkscape:window-width="1920"
     inkscape:window-height="1016"
     inkscape:window-x="1920"
     inkscape:window-y="27"
     inkscape:window-maximized="1" />
  <metadata
     id="metadata5">
    <rdf:RDF>
      <cc:Work
         rdf:about="">
        <dc:format>image/svg+xml</dc:format>
        <dc:type
           rdf:resource="http://purl.org/dc/dcmitype/StillImage" />
        <dc:title />
      </cc:Work>
    </rdf:RDF>
  </metadata>
  <g
     inkscape:label="Vrstva 1"
     inkscape:groupmode="layer"
     id="layer1"
     transform="translate(0,-290.3854)">
    <path
       id="path815"
       d="m 2.1166667,293.09737 v -1.58749 a 0.59531252,0.59531252 0 0 0 -1.19062504,0 v 1.58749 a 0.9921875,0.9921875 0 1 0 1.19062504,0 m -0.5953125,-1.78593 a 0.19843749,0.19843749 0 0 1 0.1984424,0.19844 v 0.59532 H 1.3229192 v -0.59532 a 0.19843749,0.19843749 0 0 1 0.198435,-0.19844 z"
       inkscape:connector-curvature="0"
       style="stroke-width:0.19843748;fill:#ffffff" />
    <path
       id="path826"
       d="m 4.8947916,293.14698 c 0,0 -1.190625,1.33945 -1.190625,2.13321 0,0.6588 0.5337967,1.19062 1.190625,1.19062 a 1.1906251,1.1906251 0 0 0 1.190625,-1.19062 c 0,-0.79376 -1.190625,-2.13321 -1.190625,-2.13321 m 0.4901409,1.3335 0.2103435,0.21034 -1.1906252,1.19063 -0.2103435,-0.21035 m 0.2539995,-1.18467 a 0.24804688,0.24804688 0 0 1 0.2480475,0.24804 0.24804688,0.24804688 0 0 1 -0.2480475,0.24806 0.24804688,0.24804688 0 0 1 -0.2480467,-0.24806 0.24804688,0.24804688 0 0 1 0.2480467,-0.24804 m 0.8929689,0.89297 a 0.24804688,0.24804688 0 0 1 0.2480468,0.24805 0.24804688,0.24804688 0 0 1 -0.2480468,0.24804 0.24804688,0.24804688 0 0 1 -0.2480467,-0.24804 0.24804688,0.24804688 0 0 1 0.2480467,-0.24805 z"
       inkscape:connector-curvature="0"
       style="stroke-width:0.19843751;fill:#ffffff" />
    <path
       style="fill:#ffffff;stroke:#ffffff;stroke-width:0.38239291;stroke-linecap:round;stroke-linejoin:miter;stroke-miterlimit:4;stroke-dasharray:none;stroke-opacity:1"
       d="M 2.4576256,295.64473 4.5254841,292.0631"
       id="path841"
       inkscape:connector-curvature="0" />
  </g>
</svg>
